<svg width="200" height="201" viewBox="0 0 200 201" fill="none" xmlns="http://www.w3.org/2000/svg">
<rect y="0.5" width="200" height="200" rx="100" fill="#333333"/>
<path d="M159.411 156.715C124.414 183.662 75.5994 183.447 40.8418 156.192L66.3167 144.25C67.5299 143.68 68.6943 143.011 69.7982 142.25C70.1333 142.02 70.4683 141.779 70.7877 141.528C73.5602 139.406 75.8424 136.712 77.4784 133.628C78.7152 131.258 79.5368 128.694 79.9076 126.047C80.1632 124.33 80.2927 122.595 80.295 120.859C80.295 117.864 80.1327 114.87 80.1013 111.87C80.0803 110.212 80.0629 108.553 80.0489 106.891L81.096 107.415L83.8183 108.823L85.08 109.038L99.676 111.519L115.968 114.294L116.46 131.047L116.623 136.523L116.701 139.182V139.345L123.036 141.921L159.411 156.715Z" fill="#F2A196"/>
<path d="M116.639 138.104C114.84 138.414 112.989 138.127 111.367 137.287L80.1439 111.75C80.1073 110.566 80.0759 111.807 80.0602 110.624C80.0392 108.966 80.0218 107.307 80.0078 105.645L81.0549 106.169L83.7772 107.577L85.0389 107.792L99.6349 110.273L115.927 113.048L116.419 129.801L116.582 135.277L116.66 137.936V138.109L116.639 138.104Z" fill="#E88870"/>
<path d="M159.411 156.715C124.414 183.662 75.5994 183.447 40.8418 156.192L66.3167 144.25C67.5299 143.68 68.6943 143.011 69.7982 142.25C70.1333 142.02 70.4683 141.779 70.7877 141.528C83.1168 150.302 99.943 155.836 114.497 149.287C117.963 147.716 121.146 145.182 123.031 141.926L159.411 156.715Z" fill="#FF2609"/>
<path d="M150.04 51.863C149.993 52.1719 149.935 52.4755 149.867 52.7792C149.504 54.3357 148.921 55.8324 148.134 57.224L148.093 57.2972C147.794 57.8208 147.475 58.3443 147.129 58.8678C146.212 60.2118 145.212 61.497 144.135 62.7158L143.491 63.433C143.056 63.9199 142.616 64.3963 142.177 64.8675C142.508 64.7963 142.849 64.7769 143.187 64.8099C143.313 64.8202 143.437 64.8412 143.559 64.8727C145.229 65.2182 146.658 66.7731 147.103 68.5374C147.129 68.6526 147.155 68.773 147.176 68.8882C147.59 71.2336 146.653 73.6 145.496 75.6941C143.47 79.4007 140.548 81.8665 137.978 85.0862C136.051 87.484 134.983 90.3215 132.884 92.6145L132.727 92.7873L132.601 92.913C127.052 98.6299 118.377 99.9858 111.137 102.457C108.519 103.357 80.1332 111.42 80.1332 113.179C80.1332 112.797 77.3532 110.038 73.8508 106.682C61.2861 94.7505 57.1555 76.3171 64.6315 60.5065C72.6676 43.4918 90.9179 31.3511 108.299 25.519C113.733 23.6971 119.9 22.4721 125.052 24.9955C130.204 27.5189 132.769 35.3457 128.497 39.1674C131.184 37.1345 134.526 36.1634 137.884 36.4398C140.985 36.6341 143.91 37.9497 146.114 40.1412C147.345 41.3751 148.335 42.8273 149.035 44.4237C149.323 45.0861 149.563 45.7684 149.752 46.4654C150.224 48.2248 150.322 50.0634 150.04 51.863Z" fill="#F2D4CF"/>
<path d="M150.04 51.863C149.993 52.1719 149.935 52.4755 149.867 52.7792C149.504 54.3357 148.921 55.8324 148.134 57.224L148.092 57.2973C147.794 57.8208 147.475 58.3443 147.129 58.8678C146.212 60.2118 145.212 61.497 144.135 62.7158L143.491 63.433C143.056 63.9199 142.616 64.3963 142.177 64.8675C142.508 64.7963 142.849 64.7769 143.187 64.8099C143.312 64.8202 143.437 64.8412 143.559 64.8727C145.229 65.2183 146.658 66.7731 147.103 68.5374C147.129 68.6526 147.155 68.773 147.176 68.8882C147.59 71.2336 146.653 73.6 145.496 75.6941C143.47 79.4007 140.548 81.8665 137.978 85.0862C136.051 87.484 134.983 90.3215 132.884 92.6146L132.727 92.7873L132.601 92.913C130.496 90.0805 129.155 86.7543 128.706 83.2538C127.811 76.0082 128.355 68.1134 128.109 60.7787C128.026 58.2187 127.874 55.1665 128.696 52.7373C128.92 52.136 129.221 51.5659 129.591 51.0411C130.554 49.4869 131.653 48.0206 132.873 46.6591C134.258 45.1854 136.006 44.1021 137.941 43.518C138.986 43.2209 140.057 43.0246 141.14 42.9316C142.297 42.8181 143.464 42.841 144.616 42.9997C146.153 43.219 147.639 43.7101 149.003 44.4498C149.291 45.1123 149.531 45.7946 149.721 46.4916C150.199 48.2405 150.308 50.0698 150.04 51.863Z" fill="#DAAEA8"/>
<circle cx="74.898" cy="92.2271" r="8.9" fill="#F2A196"/>
<ellipse cx="77.724" cy="92.2272" rx="7.96812" ry="7.96812" fill="#E88870"/>
<path d="M77.8398 83.8507L80.1434 113.692L114.927 134.015C119.912 135.877 125.496 133.653 127.837 128.874C132.842 118.624 140.873 102.441 139.815 96.4154C138.245 87.5154 134.056 84.3742 134.056 84.3742L135.8 73.935C136.454 70.0033 137.297 65.8989 136.323 61.9462C135.208 57.4177 131.784 55.4806 128.968 52.0934C121.555 61.6426 109.367 67.0401 98.7234 72.511C93.2316 75.359 77.8398 83.8507 77.8398 83.8507Z" fill="#F2A196"/>
<path d="M116.859 81.2853C116.817 81.4633 123.853 100.195 123.853 100.195L114.461 100.656" stroke="#00214E"/>
<path d="M94.6191 77.6573C99.4658 76.6566 104.451 76.5166 109.346 77.2437" stroke="#00214E"/>
<path d="M125.533 77.7149C128.526 77.0234 131.609 76.8096 134.669 77.0815" stroke="#00214E"/>
<path d="M104.837 105.891C104.982 105.662 105.215 105.504 105.482 105.454C105.748 105.405 106.023 105.468 106.24 105.629C107.329 106.394 109.319 108.017 112.146 108.577C115.999 109.347 119.339 107.802 120.14 108.797C120.59 109.357 120.04 110.043 118.988 110.891C116.762 112.558 113.956 113.255 111.209 112.823C107.502 112.126 104.717 107.834 104.717 106.31C104.721 106.163 104.763 106.019 104.837 105.891Z" fill="white"/>
<path d="M103.456 83.6622C106.649 83.6883 106.649 88.5676 103.456 88.5938H103.309C100.116 88.5676 100.116 83.6883 103.309 83.6622H103.456Z" fill="#00214E"/>
<path d="M129.769 83.3271C132.732 83.3271 132.732 87.8819 129.769 87.9028H129.638C126.67 87.9028 126.67 83.3481 129.638 83.3271H129.769Z" fill="#00214E"/>
</svg>
