<svg width="76" height="75" viewBox="0 0 76 75" fill="none" xmlns="http://www.w3.org/2000/svg">
<circle cx="38" cy="37.5" r="37.5" fill="#E2E5FA"/>
<g opacity="0.8">
<path d="M30.411 24.0409C36.5455 23.5082 42.7147 23.5082 48.8492 24.0409L51.8048 24.2976C53.7723 24.4685 55.4574 25.6409 56.3305 27.318C56.4422 27.5326 56.3585 27.7923 56.1527 27.9196L43.8901 35.5035C41.2602 37.1301 37.944 37.1642 35.281 35.5921L22.9366 28.3046C22.7371 28.1868 22.6456 27.9445 22.7355 27.7312C23.5342 25.8355 25.33 24.4822 27.4554 24.2976L30.411 24.0409Z" fill="black"/>
<path d="M22.7254 31.5864C22.4202 31.4062 22.0307 31.6001 21.9952 31.9525C21.4986 36.871 21.6188 41.836 22.3557 46.7319C22.7442 49.313 24.8527 51.2917 27.4554 51.5177L30.411 51.7744C36.5455 52.3072 42.7147 52.3072 48.8492 51.7744L51.8048 51.5177C54.4075 51.2917 56.516 49.313 56.9045 46.7319C57.6629 41.6933 57.7681 36.5816 57.22 31.5227C57.1816 31.1678 56.7855 30.9774 56.4817 31.1653L45.4353 37.9971C41.8771 40.1977 37.3905 40.2439 33.7877 38.117L22.7254 31.5864Z" fill="black"/>
</g>
</svg>
